<mxfile host="65bd71144e">
    <diagram id="kzR2WOW9anDOpDg0x2Ym" name="Page-1">
        <mxGraphModel dx="892" dy="729" grid="1" gridSize="10" guides="1" tooltips="1" connect="1" arrows="1" fold="1" page="1" pageScale="1" pageWidth="827" pageHeight="1169" math="0" shadow="0">
            <root>
                <mxCell id="0"/>
                <mxCell id="1" parent="0"/>
                <mxCell id="19" value="" style="rounded=0;whiteSpace=wrap;html=1;fontSize=16;fontColor=#000000;dashed=1;dashPattern=8 8;" vertex="1" parent="1">
                    <mxGeometry x="180" y="170" width="270" height="280" as="geometry"/>
                </mxCell>
                <mxCell id="17" style="edgeStyle=orthogonalEdgeStyle;html=1;exitX=1;exitY=0.5;exitDx=0;exitDy=0;entryX=0.5;entryY=0;entryDx=0;entryDy=0;strokeWidth=2;fontSize=16;" edge="1" parent="1" source="2" target="6">
                    <mxGeometry relative="1" as="geometry"/>
                </mxCell>
                <mxCell id="20" style="edgeStyle=orthogonalEdgeStyle;html=1;exitX=0.25;exitY=1;exitDx=0;exitDy=0;entryX=0.25;entryY=0;entryDx=0;entryDy=0;strokeWidth=2;fontSize=16;fontColor=#000000;" edge="1" parent="1" source="2" target="3">
                    <mxGeometry relative="1" as="geometry"/>
                </mxCell>
                <mxCell id="2" value="&lt;font style=&quot;font-size: 19px;&quot;&gt;torll&lt;br&gt;&lt;/font&gt;" style="rounded=1;whiteSpace=wrap;html=1;" vertex="1" parent="1">
                    <mxGeometry x="200" y="190" width="230" height="120" as="geometry"/>
                </mxCell>
                <mxCell id="16" style="edgeStyle=orthogonalEdgeStyle;html=1;exitX=0.5;exitY=1;exitDx=0;exitDy=0;entryX=0.5;entryY=0;entryDx=0;entryDy=0;strokeWidth=2;fontSize=16;" edge="1" parent="1" source="3" target="10">
                    <mxGeometry relative="1" as="geometry"/>
                </mxCell>
                <mxCell id="18" style="edgeStyle=orthogonalEdgeStyle;html=1;exitX=0.75;exitY=0;exitDx=0;exitDy=0;entryX=0.75;entryY=1;entryDx=0;entryDy=0;strokeWidth=2;fontSize=16;fontColor=#000000;" edge="1" parent="1" source="3" target="2">
                    <mxGeometry relative="1" as="geometry"/>
                </mxCell>
                <mxCell id="3" value="&lt;font style=&quot;font-size: 16px;&quot;&gt;torcp&lt;/font&gt;" style="rounded=1;whiteSpace=wrap;html=1;" vertex="1" parent="1">
                    <mxGeometry x="200" y="370" width="230" height="50" as="geometry"/>
                </mxCell>
                <mxCell id="15" style="edgeStyle=orthogonalEdgeStyle;html=1;exitX=0.5;exitY=1;exitDx=0;exitDy=0;entryX=1;entryY=0.5;entryDx=0;entryDy=0;strokeWidth=2;fontSize=16;" edge="1" parent="1" source="6" target="3">
                    <mxGeometry relative="1" as="geometry"/>
                </mxCell>
                <mxCell id="6" value="&lt;font color=&quot;#000000&quot;&gt;qBit&lt;/font&gt;" style="rounded=0;whiteSpace=wrap;html=1;fontSize=16;fillColor=#b1ddf0;strokeColor=#10739e;" vertex="1" parent="1">
                    <mxGeometry x="470" y="290" width="200" height="70" as="geometry"/>
                </mxCell>
                <mxCell id="14" style="edgeStyle=orthogonalEdgeStyle;html=1;exitX=0.5;exitY=1;exitDx=0;exitDy=0;entryX=0.5;entryY=0;entryDx=0;entryDy=0;strokeWidth=2;fontSize=16;" edge="1" parent="1" source="7" target="2">
                    <mxGeometry relative="1" as="geometry"/>
                </mxCell>
                <mxCell id="7" value="&lt;font color=&quot;#000000&quot;&gt;PT Site&lt;/font&gt;" style="rounded=0;whiteSpace=wrap;html=1;fontSize=16;fillColor=#fad9d5;strokeColor=#ae4132;" vertex="1" parent="1">
                    <mxGeometry x="200" y="30" width="230" height="100" as="geometry"/>
                </mxCell>
                <mxCell id="9" value="Plex" style="rounded=0;whiteSpace=wrap;html=1;fontSize=16;fillColor=#a0522d;fontColor=#ffffff;strokeColor=#6D1F00;" vertex="1" parent="1">
                    <mxGeometry x="200" y="540" width="230" height="100" as="geometry"/>
                </mxCell>
                <mxCell id="10" value="nas/gd" style="rounded=0;whiteSpace=wrap;html=1;fontSize=16;" vertex="1" parent="1">
                    <mxGeometry x="200" y="500" width="230" height="50" as="geometry"/>
                </mxCell>
            </root>
        </mxGraphModel>
    </diagram>
    <diagram id="DhV4GZEfUdVb2DLy5Zq3" name="Page-2">
        <mxGraphModel dx="892" dy="729" grid="1" gridSize="10" guides="1" tooltips="1" connect="1" arrows="1" fold="1" page="1" pageScale="1" pageWidth="827" pageHeight="1169" math="0" shadow="0">
            <root>
                <mxCell id="0"/>
                <mxCell id="1" parent="0"/>
                <mxCell id="t_Yw5VcFEeMCsgDDP2IW-1" value="" style="rounded=0;whiteSpace=wrap;html=1;fontSize=16;fontColor=#000000;dashed=1;dashPattern=8 8;" vertex="1" parent="1">
                    <mxGeometry x="180" y="160" width="270" height="290" as="geometry"/>
                </mxCell>
                <mxCell id="t_Yw5VcFEeMCsgDDP2IW-2" style="edgeStyle=orthogonalEdgeStyle;html=1;exitX=1;exitY=0.5;exitDx=0;exitDy=0;entryX=0.5;entryY=0;entryDx=0;entryDy=0;strokeWidth=2;fontSize=16;" edge="1" parent="1" source="t_Yw5VcFEeMCsgDDP2IW-4" target="t_Yw5VcFEeMCsgDDP2IW-9">
                    <mxGeometry relative="1" as="geometry"/>
                </mxCell>
                <mxCell id="t_Yw5VcFEeMCsgDDP2IW-23" value="种子" style="edgeLabel;html=1;align=center;verticalAlign=middle;resizable=0;points=[];fontSize=16;fontColor=#FFFFFF;" vertex="1" connectable="0" parent="t_Yw5VcFEeMCsgDDP2IW-2">
                    <mxGeometry x="0.0556" y="-2" relative="1" as="geometry">
                        <mxPoint y="1" as="offset"/>
                    </mxGeometry>
                </mxCell>
                <mxCell id="t_Yw5VcFEeMCsgDDP2IW-3" style="edgeStyle=orthogonalEdgeStyle;html=1;exitX=0.25;exitY=1;exitDx=0;exitDy=0;entryX=0.25;entryY=0;entryDx=0;entryDy=0;strokeWidth=2;fontSize=16;fontColor=#000000;" edge="1" parent="1" source="t_Yw5VcFEeMCsgDDP2IW-4" target="t_Yw5VcFEeMCsgDDP2IW-7">
                    <mxGeometry relative="1" as="geometry"/>
                </mxCell>
                <mxCell id="t_Yw5VcFEeMCsgDDP2IW-18" style="edgeStyle=orthogonalEdgeStyle;html=1;exitX=0;exitY=0.5;exitDx=0;exitDy=0;entryX=0;entryY=0.5;entryDx=0;entryDy=0;strokeWidth=2;fontSize=16;fontColor=#FFFFFF;" edge="1" parent="1" source="t_Yw5VcFEeMCsgDDP2IW-4" target="t_Yw5VcFEeMCsgDDP2IW-12">
                    <mxGeometry relative="1" as="geometry">
                        <Array as="points">
                            <mxPoint x="120" y="250"/>
                            <mxPoint x="120" y="590"/>
                        </Array>
                    </mxGeometry>
                </mxCell>
                <mxCell id="t_Yw5VcFEeMCsgDDP2IW-19" value="plex_notify" style="edgeLabel;html=1;align=center;verticalAlign=middle;resizable=0;points=[];fontSize=16;fontColor=#FFFFFF;" vertex="1" connectable="0" parent="t_Yw5VcFEeMCsgDDP2IW-18">
                    <mxGeometry x="-0.1643" y="-1" relative="1" as="geometry">
                        <mxPoint as="offset"/>
                    </mxGeometry>
                </mxCell>
                <mxCell id="t_Yw5VcFEeMCsgDDP2IW-4" value="&lt;font style=&quot;font-size: 19px;&quot;&gt;torll&lt;br&gt;&lt;/font&gt;" style="rounded=1;whiteSpace=wrap;html=1;" vertex="1" parent="1">
                    <mxGeometry x="200" y="190" width="230" height="120" as="geometry"/>
                </mxCell>
                <mxCell id="t_Yw5VcFEeMCsgDDP2IW-5" style="edgeStyle=orthogonalEdgeStyle;html=1;exitX=0.5;exitY=1;exitDx=0;exitDy=0;entryX=0.5;entryY=0;entryDx=0;entryDy=0;strokeWidth=2;fontSize=16;" edge="1" parent="1" source="t_Yw5VcFEeMCsgDDP2IW-7" target="t_Yw5VcFEeMCsgDDP2IW-13">
                    <mxGeometry relative="1" as="geometry"/>
                </mxCell>
                <mxCell id="t_Yw5VcFEeMCsgDDP2IW-20" value="媒体目录" style="edgeLabel;html=1;align=center;verticalAlign=middle;resizable=0;points=[];fontSize=16;fontColor=#FFFFFF;" vertex="1" connectable="0" parent="t_Yw5VcFEeMCsgDDP2IW-5">
                    <mxGeometry x="0.1" relative="1" as="geometry">
                        <mxPoint as="offset"/>
                    </mxGeometry>
                </mxCell>
                <mxCell id="t_Yw5VcFEeMCsgDDP2IW-6" style="edgeStyle=orthogonalEdgeStyle;html=1;exitX=0.75;exitY=0;exitDx=0;exitDy=0;entryX=0.75;entryY=1;entryDx=0;entryDy=0;strokeWidth=2;fontSize=16;fontColor=#000000;" edge="1" parent="1" source="t_Yw5VcFEeMCsgDDP2IW-7" target="t_Yw5VcFEeMCsgDDP2IW-4">
                    <mxGeometry relative="1" as="geometry"/>
                </mxCell>
                <mxCell id="t_Yw5VcFEeMCsgDDP2IW-7" value="&lt;font style=&quot;font-size: 16px;&quot;&gt;torcp&lt;/font&gt;" style="rounded=1;whiteSpace=wrap;html=1;" vertex="1" parent="1">
                    <mxGeometry x="200" y="380" width="230" height="50" as="geometry"/>
                </mxCell>
                <mxCell id="t_Yw5VcFEeMCsgDDP2IW-8" style="edgeStyle=orthogonalEdgeStyle;html=1;exitX=0.5;exitY=1;exitDx=0;exitDy=0;entryX=1;entryY=0.5;entryDx=0;entryDy=0;strokeWidth=2;fontSize=16;" edge="1" parent="1" source="t_Yw5VcFEeMCsgDDP2IW-9" target="t_Yw5VcFEeMCsgDDP2IW-7">
                    <mxGeometry relative="1" as="geometry"/>
                </mxCell>
                <mxCell id="t_Yw5VcFEeMCsgDDP2IW-21" value="完成后运行" style="edgeLabel;html=1;align=center;verticalAlign=middle;resizable=0;points=[];fontSize=16;fontColor=#FFFFFF;" vertex="1" connectable="0" parent="t_Yw5VcFEeMCsgDDP2IW-8">
                    <mxGeometry x="-0.7943" y="1" relative="1" as="geometry">
                        <mxPoint as="offset"/>
                    </mxGeometry>
                </mxCell>
                <mxCell id="t_Yw5VcFEeMCsgDDP2IW-9" value="&lt;font color=&quot;#000000&quot;&gt;qBit&lt;/font&gt;" style="rounded=0;whiteSpace=wrap;html=1;fontSize=16;fillColor=#b1ddf0;strokeColor=#10739e;" vertex="1" parent="1">
                    <mxGeometry x="470" y="290" width="200" height="70" as="geometry"/>
                </mxCell>
                <mxCell id="t_Yw5VcFEeMCsgDDP2IW-10" style="edgeStyle=orthogonalEdgeStyle;html=1;exitX=0.5;exitY=1;exitDx=0;exitDy=0;entryX=0.5;entryY=0;entryDx=0;entryDy=0;strokeWidth=2;fontSize=16;" edge="1" parent="1" source="t_Yw5VcFEeMCsgDDP2IW-11" target="t_Yw5VcFEeMCsgDDP2IW-4">
                    <mxGeometry relative="1" as="geometry"/>
                </mxCell>
                <mxCell id="t_Yw5VcFEeMCsgDDP2IW-16" style="edgeStyle=orthogonalEdgeStyle;html=1;exitX=1;exitY=0.5;exitDx=0;exitDy=0;entryX=0;entryY=0.5;entryDx=0;entryDy=0;strokeWidth=2;fontSize=16;fontColor=#FFFFFF;" edge="1" parent="1" source="t_Yw5VcFEeMCsgDDP2IW-11" target="t_Yw5VcFEeMCsgDDP2IW-14">
                    <mxGeometry relative="1" as="geometry"/>
                </mxCell>
                <mxCell id="t_Yw5VcFEeMCsgDDP2IW-11" value="&lt;font color=&quot;#000000&quot;&gt;PT Site&lt;/font&gt;" style="rounded=0;whiteSpace=wrap;html=1;fontSize=16;fillColor=#fad9d5;strokeColor=#ae4132;" vertex="1" parent="1">
                    <mxGeometry x="200" y="30" width="230" height="100" as="geometry"/>
                </mxCell>
                <mxCell id="t_Yw5VcFEeMCsgDDP2IW-12" value="Plex" style="rounded=0;whiteSpace=wrap;html=1;fontSize=16;fillColor=#a0522d;fontColor=#ffffff;strokeColor=#6D1F00;" vertex="1" parent="1">
                    <mxGeometry x="200" y="540" width="230" height="100" as="geometry"/>
                </mxCell>
                <mxCell id="t_Yw5VcFEeMCsgDDP2IW-13" value="nas/gd" style="rounded=0;whiteSpace=wrap;html=1;fontSize=16;" vertex="1" parent="1">
                    <mxGeometry x="200" y="500" width="230" height="50" as="geometry"/>
                </mxCell>
                <mxCell id="t_Yw5VcFEeMCsgDDP2IW-15" style="edgeStyle=orthogonalEdgeStyle;html=1;exitX=0.5;exitY=1;exitDx=0;exitDy=0;entryX=1;entryY=0.25;entryDx=0;entryDy=0;strokeWidth=2;fontSize=16;fontColor=#FFFFFF;" edge="1" parent="1" source="t_Yw5VcFEeMCsgDDP2IW-14" target="t_Yw5VcFEeMCsgDDP2IW-4">
                    <mxGeometry relative="1" as="geometry"/>
                </mxCell>
                <mxCell id="t_Yw5VcFEeMCsgDDP2IW-22" value="查重,下载" style="edgeLabel;html=1;align=center;verticalAlign=middle;resizable=0;points=[];fontSize=16;fontColor=#FFFFFF;" vertex="1" connectable="0" parent="t_Yw5VcFEeMCsgDDP2IW-15">
                    <mxGeometry x="-0.5886" y="1" relative="1" as="geometry">
                        <mxPoint as="offset"/>
                    </mxGeometry>
                </mxCell>
                <mxCell id="t_Yw5VcFEeMCsgDDP2IW-14" value="&lt;font color=&quot;#ffffff&quot;&gt;torfilter&lt;/font&gt;" style="rounded=1;whiteSpace=wrap;html=1;fontSize=16;fontColor=#000000;" vertex="1" parent="1">
                    <mxGeometry x="470" y="30" width="90" height="100" as="geometry"/>
                </mxCell>
            </root>
        </mxGraphModel>
    </diagram>
</mxfile>